<?xml version="1.0" encoding="utf-8"?>
<!-- Generator: Adobe Illustrator 19.0.0, SVG Export Plug-In . SVG Version: 6.00 Build 0)  -->
<svg version="1.1" id="Layer_1" xmlns="http://www.w3.org/2000/svg" xmlns:xlink="http://www.w3.org/1999/xlink" x="0px" y="0px"
	 viewBox="0 0 50 33.3" style="enable-background:new 0 0 50 33.3;" xml:space="preserve">
<path id="XMLID_4_" d="M17.1,8.5h4.6l-3.3,5.2c-0.9,1.1-0.7,1.6,0.4,2.1c1.5,0.7,2.5,2,2.5,4.2c0,2.9-1.8,4.7-4.8,4.7
	c-3,0-4.8-2-4.8-5.3c0-2.4,1.1-4.4,2.5-6.5L17.1,8.5z M31.7,8.5h4.6L33,13.7c-0.9,1.1-0.7,1.6,0.4,2.1c1.5,0.7,2.5,2,2.5,4.2
	c0,2.9-1.8,4.7-4.8,4.7c-3,0-4.8-2-4.8-5.3c0-2.4,1.1-4.4,2.5-6.5L31.7,8.5z"/>
</svg>
