<?xml version="1.0" encoding="utf-8"?>
<!-- Generator: Adobe Illustrator 19.0.0, SVG Export Plug-In . SVG Version: 6.00 Build 0)  -->
<svg version="1.1" id="Layer_1" xmlns="http://www.w3.org/2000/svg" xmlns:xlink="http://www.w3.org/1999/xlink" x="0px" y="0px"
	 viewBox="0 0 50 33.3" style="enable-background:new 0 0 50 33.3;" xml:space="preserve">
<path id="XMLID_7_" d="M17.3,24.4h-4.6l3.3-5.2c0.9-1.1,0.7-1.6-0.4-2.1c-1.5-0.7-2.5-2-2.5-4.2c0-2.9,1.8-4.7,4.8-4.7
	c3,0,4.8,2,4.8,5.3c0,2.4-1.1,4.4-2.5,6.5L17.3,24.4z M32,24.4h-4.6l3.3-5.2c0.9-1.1,0.7-1.6-0.4-2.1c-1.5-0.7-2.5-2-2.5-4.2
	c0-2.9,1.8-4.7,4.8-4.7s4.8,2,4.8,5.3c0,2.4-1.1,4.4-2.5,6.5L32,24.4z"/>
</svg>
